<svg width="88" height="88" viewBox="0 0 88 88" fill="none" xmlns="http://www.w3.org/2000/svg">
<g clip-path="url(#clip0_1266_4608)">
<rect width="88" height="88" fill="black"/>
<g filter="url(#filter0_d_1266_4608)">
<path d="M74.5303 69.8675C74.5303 72.4427 72.4427 74.5303 69.8675 74.5303H65.8856C64.386 74.5303 62.9779 73.809 62.1017 72.592L59.643 69.1772C57.7823 66.5928 53.9358 66.5928 52.075 69.1772L49.6164 72.592C48.7402 73.809 47.332 74.5303 45.8324 74.5303H42.1224C40.6227 74.5303 39.2146 73.809 38.3384 72.5919L35.8797 69.1771C34.019 66.5927 30.1725 66.5927 28.3117 69.1771L25.8531 72.592C24.9769 73.809 23.5687 74.5303 22.0691 74.5303H17.6628C15.0876 74.5303 13 72.4427 13 69.8675V17.6628C13 15.0876 15.0876 13 17.6628 13H33.9506C35.4503 13 36.8584 13.7213 37.7346 14.9383L40.1933 18.3531C42.054 20.9374 45.9005 20.9374 47.7612 18.3531L50.2199 14.9383C51.0961 13.7213 52.5042 13 54.0039 13H69.8675C72.4427 13 74.5303 15.0876 74.5303 17.6628V69.8675Z" fill="white"/>
</g>
<path d="M29.4441 34.1969C29.7745 33.3592 30.9602 33.3592 31.2906 34.1969L33.4373 39.6399C33.5381 39.8957 33.7406 40.0982 33.9964 40.199L39.4394 42.3457C40.2771 42.6761 40.2771 43.8618 39.4394 44.1922L33.9964 46.3389C33.7406 46.4397 33.5381 46.6422 33.4373 46.898L31.2906 52.341C30.9602 53.1787 29.7745 53.1787 29.4441 52.341L27.2974 46.898C27.1966 46.6422 26.9941 46.4397 26.7383 46.3389L21.2953 44.1922C20.4576 43.8618 20.4576 42.6761 21.2953 42.3457L26.7383 40.199C26.9941 40.0982 27.1966 39.8957 27.2974 39.6399L29.4441 34.1969Z" fill="#FF4242"/>
<path d="M56.4851 34.1969C56.8155 33.3592 58.0012 33.3592 58.3316 34.1969L60.4783 39.6399C60.5792 39.8957 60.7816 40.0982 61.0374 40.199L66.4804 42.3457C67.3182 42.6761 67.3182 43.8618 66.4804 44.1922L61.0374 46.3389C60.7816 46.4397 60.5792 46.6422 60.4783 46.898L58.3316 52.341C58.0012 53.1787 56.8155 53.1787 56.4851 52.341L54.3384 46.898C54.2376 46.6422 54.0351 46.4397 53.7793 46.3389L48.3363 44.1922C47.4986 43.8618 47.4986 42.6761 48.3363 42.3457L53.7793 40.199C54.0351 40.0982 54.2376 39.8957 54.3384 39.6399L56.4851 34.1969Z" fill="#FF4242"/>
</g>
<defs>
<filter id="filter0_d_1266_4608" x="-20.7425" y="-20.7425" width="129.015" height="129.015" filterUnits="userSpaceOnUse" color-interpolation-filters="sRGB">
<feFlood flood-opacity="0" result="BackgroundImageFix"/>
<feColorMatrix in="SourceAlpha" type="matrix" values="0 0 0 0 0 0 0 0 0 0 0 0 0 0 0 0 0 0 127 0" result="hardAlpha"/>
<feOffset/>
<feGaussianBlur stdDeviation="16.8712"/>
<feComposite in2="hardAlpha" operator="out"/>
<feColorMatrix type="matrix" values="0 0 0 0 0.886275 0 0 0 0 0.117647 0 0 0 0 0.258824 0 0 0 1 0"/>
<feBlend mode="normal" in2="BackgroundImageFix" result="effect1_dropShadow_1266_4608"/>
<feBlend mode="normal" in="SourceGraphic" in2="effect1_dropShadow_1266_4608" result="shape"/>
</filter>
<clipPath id="clip0_1266_4608">
<rect width="88" height="88" fill="white"/>
</clipPath>
</defs>
</svg>
