<svg width="327" height="218" viewBox="0 0 327 218" fill="none" xmlns="http://www.w3.org/2000/svg">
<g clip-path="url(#clip0_1325_7277)">
<rect width="327" height="218" rx="10" fill="#1F2021"/>
<path d="M-3.5 98.009L252.641 170.159V184.009L-3.5 152.443V98.009Z" fill="url(#paint0_linear_1325_7277)" stroke="white" stroke-width="0.794851"/>
<path d="M252.641 205.461V184.033L-3.06064 153.009L-3.5 214.097V276.009L252.641 205.461Z" fill="url(#paint1_linear_1325_7277)" stroke="white" stroke-width="0.794851"/>
<path d="M252.641 186.848V183.622L-3.5 152.009V212.009L252.641 186.848Z" fill="url(#paint2_linear_1325_7277)" stroke="white" stroke-width="0.794851"/>
<g filter="url(#filter0_d_1325_7277)">
<path d="M328.993 241.597C328.993 246.865 324.723 251.135 319.455 251.135H306.535C303.468 251.135 300.587 249.66 298.795 247.17L290.46 235.594C286.654 230.307 278.785 230.307 274.979 235.594L266.644 247.17C264.851 249.66 261.971 251.135 258.903 251.135H247.642C244.574 251.135 241.694 249.66 239.901 247.17L231.566 235.594C227.759 230.307 219.891 230.307 216.085 235.594L207.75 247.17C205.958 249.66 203.077 251.135 200.01 251.135H186.038C180.77 251.135 176.5 246.865 176.5 241.597V108.18C176.5 102.912 180.77 98.6418 186.038 98.6418H229.456C232.524 98.6418 235.404 100.117 237.197 102.607L245.532 114.183C249.338 119.47 257.207 119.47 261.013 114.183L269.347 102.607C271.14 100.117 274.02 98.6418 277.088 98.6418H319.455C324.723 98.6418 328.993 102.912 328.993 108.18V241.597Z" fill="white"/>
</g>
<path d="M216.71 152.557C217.724 149.986 221.362 149.986 222.375 152.557L227.058 164.428C227.367 165.213 227.988 165.834 228.773 166.144L240.645 170.826C243.215 171.84 243.215 175.478 240.645 176.492L228.773 181.174C227.988 181.483 227.367 182.105 227.058 182.889L222.375 194.761C221.362 197.332 217.724 197.332 216.71 194.761L212.028 182.889C211.718 182.105 211.097 181.483 210.312 181.174L198.44 176.492C195.87 175.478 195.87 171.84 198.44 170.826L210.312 166.144C211.097 165.834 211.718 165.213 212.028 164.428L216.71 152.557Z" fill="black"/>
<path d="M283.726 152.557C284.74 149.986 288.378 149.986 289.391 152.557L294.074 164.428C294.383 165.213 295.004 165.834 295.789 166.144L307.661 170.826C310.231 171.84 310.231 175.478 307.661 176.492L295.789 181.174C295.004 181.483 294.383 182.105 294.074 182.889L289.391 194.761C288.378 197.332 284.74 197.332 283.726 194.761L279.044 182.889C278.734 182.105 278.113 181.483 277.328 181.174L265.456 176.492C262.886 175.478 262.886 171.84 265.456 170.826L277.328 166.144C278.113 165.834 278.734 165.213 279.044 164.428L283.726 152.557Z" fill="black"/>
<path d="M34.3594 27.9297C38.9531 27.9297 42.375 30.25 42.3984 33.7656C42.375 36.9766 39.668 39.1445 35.8359 39.5781V43.2109H44.1562V45.6719H24.6328V43.2109H32.8594V39.5547C29.0391 39.1445 26.3438 36.9648 26.3438 33.7656C26.3438 30.25 29.7656 27.9297 34.3594 27.9297ZM34.3594 30.3203C31.3828 30.3203 29.2969 31.6328 29.2969 33.7656C29.2969 36.0156 31.3828 37.2812 34.3594 37.2812C37.3594 37.2812 39.4219 36.0156 39.4453 33.7656C39.4219 31.6328 37.3594 30.3203 34.3594 30.3203ZM62.025 31.1406V33.5078H47.1891V27.0859H50.1656V31.1406H62.025ZM64.275 34.9375V37.3047H44.7516V34.9375H64.275ZM61.9312 38.5938V44.2656H50.025V45.625H62.5875V47.9219H47.025V42.1094H58.9547V40.8906H46.9781V38.5938H61.9312ZM71.8312 28.2578C75.2062 28.2344 77.7375 30.4375 77.7375 33.4844C77.7375 36.5547 75.2062 38.7344 71.8312 38.7344C68.4562 38.7344 65.9016 36.5547 65.9016 33.4844C65.9016 30.4375 68.4562 28.2344 71.8312 28.2578ZM71.8312 30.8359C70.1437 30.8359 68.8547 31.8203 68.8781 33.4844C68.8547 35.1719 70.1437 36.1328 71.8312 36.1328C73.5187 36.1328 74.8078 35.1719 74.8312 33.4844C74.8078 31.8203 73.5422 30.8359 71.8312 30.8359ZM82.8469 26.8281V48.2031H79.8703V26.8281H82.8469ZM65.0109 41.4062C68.8078 41.4297 74.0812 41.3594 78.6516 40.7266L78.8859 42.8828C74.1516 43.7969 69.0891 43.8438 65.3625 43.8438L65.0109 41.4062ZM107.381 36.3672V38.7344H101.194V43.2812H109.514V45.7188H89.9906V43.2812H98.2172V38.7344H92.2875V28.3281H107.217V30.7188H95.2875V36.3672H107.381ZM122.297 28.7969V31.1875H120.398V40.4922C121.266 40.4219 122.109 40.3398 122.93 40.2344L123.094 42.3906C118.734 43.1641 113.836 43.2344 110.18 43.2578L109.852 40.8203L112.289 40.7969V31.1875H110.391V28.7969H122.297ZM126.961 26.8281V34.9375H130.102V37.375H126.961V48.1562H123.961V26.8281H126.961ZM115.172 40.75L117.516 40.6562V31.1875H115.172V40.75ZM141.783 28.0938V37.6562H131.353V28.0938H141.783ZM134.306 30.4844V35.2891H138.806V30.4844H134.306ZM148.134 26.8516V38.8984H145.134V26.8516H148.134ZM148.134 39.9531V47.9219H133.838V39.9531H148.134ZM136.791 42.2734V45.5312H145.205V42.2734H136.791ZM169.87 37.7266V40.1172H150.417V37.7266H169.87ZM167.667 45.3906V47.7812H152.761V41.5469H155.761V45.3906H167.667ZM160.144 27.4844C164.808 27.4609 167.878 29.125 167.902 31.8438C167.878 34.5625 164.808 36.25 160.144 36.25C155.433 36.25 152.363 34.5625 152.363 31.8438C152.363 29.125 155.433 27.4609 160.144 27.4844ZM160.144 29.8281C157.191 29.8516 155.456 30.5547 155.48 31.8438C155.456 33.1797 157.191 33.8359 160.144 33.8359C163.097 33.8359 164.808 33.1797 164.808 31.8438C164.808 30.5547 163.097 29.8516 160.144 29.8281ZM174.286 40.6562C174.309 37.75 175.083 36.8359 176.489 35.9688C177.497 35.3125 178.27 34.5859 178.27 33.5078C178.27 32.3359 177.356 31.5625 176.231 31.5625C175.13 31.5625 174.122 32.2891 174.075 33.6719H170.747C170.817 30.3672 173.255 28.7969 176.255 28.7969C179.512 28.7969 181.833 30.5078 181.833 33.3906C181.833 35.3125 180.848 36.5547 179.302 37.4688C177.989 38.2656 177.403 39.0156 177.38 40.6562V40.9141H174.286V40.6562ZM175.903 46.2109C174.802 46.2109 173.911 45.3203 173.934 44.2422C173.911 43.1641 174.802 42.2969 175.903 42.2969C176.934 42.2969 177.848 43.1641 177.848 44.2422C177.848 45.3203 176.934 46.2109 175.903 46.2109Z" fill="white"/>
<path d="M30.0293 60.5547C32.6816 60.5547 34.6367 61.8809 34.6367 63.8906C34.6367 65.7432 33.0439 66.9805 30.7812 67.1992V69.4688H35.7031V70.7129H24.4102V69.4688H29.2773V67.1992C27.0283 66.9805 25.4355 65.7432 25.4492 63.8906C25.4355 61.8809 27.3906 60.5547 30.0293 60.5547ZM30.0293 61.7852C28.2246 61.7715 26.9258 62.5918 26.9395 63.8906C26.9258 65.2305 28.2246 66.0234 30.0293 66.0234C31.8613 66.0234 33.1465 65.2305 33.1465 63.8906C33.1465 62.5918 31.8613 61.7715 30.0293 61.7852ZM45.8902 62.5234V63.7402H37.359V60.0215H38.8492V62.5234H45.8902ZM47.1891 64.6836V65.9004H35.8961V64.6836H47.1891ZM45.8082 66.7617V69.9199H38.7809V70.877H46.2184V72.0664H37.2496V68.8125H44.3043V67.9375H37.2359V66.7617H45.8082ZM51.4152 60.7188C53.3703 60.7051 54.8059 61.9492 54.8195 63.6992C54.8059 65.4629 53.3703 66.6934 51.4152 66.6934C49.4738 66.6934 48.0246 65.4629 48.0246 63.6992C48.0246 61.9492 49.4738 60.7051 51.4152 60.7188ZM51.4152 62.0312C50.3352 62.0312 49.5285 62.6738 49.5285 63.6992C49.5285 64.7383 50.3352 65.3672 51.4152 65.3672C52.509 65.3672 53.3293 64.7383 53.3293 63.6992C53.3293 62.6738 52.509 62.0312 51.4152 62.0312ZM57.7043 59.8574V72.2305H56.1867V59.8574H57.7043ZM47.4641 68.4023C49.6926 68.4023 52.7824 68.375 55.4484 67.9922L55.5715 69.0996C52.7961 69.6328 49.8293 69.6465 47.6555 69.6465L47.4641 68.4023ZM71.6664 65.4766V66.6797H68.0023V69.5098H72.9242V70.7539H61.6312V69.5098H66.4984V66.6797H62.9984V60.7734H71.5707V61.9902H64.516V65.4766H71.6664ZM80.1855 61.0605V62.3047H78.9961V67.8691C79.5566 67.8213 80.1104 67.7734 80.6367 67.7051L80.7051 68.7988C78.1484 69.2363 75.291 69.291 73.1445 69.291L72.9668 68.0469L74.457 68.0332V62.3047H73.2812V61.0605H80.1855ZM82.8105 59.8574V64.6426H84.7109V65.8867H82.8105V72.2168H81.293V59.8574H82.8105ZM75.9336 68.0059C76.46 67.999 76.9932 67.9785 77.5332 67.9512V62.3047H75.9336V68.0059ZM91.2203 60.8828V66.7617H85.2594V60.8828H91.2203ZM86.7633 62.0996V65.5449H89.7164V62.0996H86.7633ZM94.9254 59.8711V68.6895H93.3941V59.8711H94.9254ZM95.2672 70.6582V71.8887H86.7496V67.8555H88.2809V70.6582H95.2672ZM103.296 62.3867C103.296 63.7129 104.294 65.0117 106.235 65.5312L105.552 66.6934C104.116 66.3174 103.104 65.4971 102.557 64.4375C102.004 65.5996 100.965 66.502 99.5086 66.9258L98.784 65.7227C100.739 65.2031 101.778 63.8359 101.778 62.3867V62.3457H99.1941V61.1426H101.778V59.8027H103.309V61.1426H105.88V62.3457H103.296V62.3867ZM108.6 59.8574V62.7285H110.323V63.9863H108.6V66.9395H107.083V59.8574H108.6ZM108.778 67.5137V68.7305H105.511C105.798 69.7559 107.185 70.7129 109.298 71.0137L108.751 72.1758C106.816 71.9023 105.353 71.0752 104.636 69.9473C103.925 71.0684 102.475 71.875 100.561 72.1484L100.001 71C102.12 70.7061 103.494 69.7832 103.788 68.7305H100.507V67.5137H108.778ZM120.442 60.9922V62.1816C120.428 63.7129 120.428 65.4355 119.95 68.0195L118.418 67.8555C118.897 65.4492 118.897 63.6924 118.911 62.209H111.528V60.9922H120.442ZM121.618 69.373V70.6172H110.352V69.373H114.508V65.0801H116.012V69.373H121.618ZM134.869 59.8711V68.9355H133.338V59.8711H134.869ZM135.211 70.7402V71.9707H126.693V68.1152H128.224V70.7402H135.211ZM129.263 62.7422C129.263 64.2051 130.33 65.5996 132.298 66.1602L131.574 67.3633C130.131 66.9395 129.099 66.0645 128.539 64.9434C127.978 66.1602 126.932 67.1172 125.463 67.5684L124.724 66.3789C126.707 65.7773 127.746 64.3008 127.746 62.7422V62.5781H125.107V61.375H127.746V59.9258H129.277V61.375H131.902V62.5781H129.263V62.7422ZM145.958 60.6094V61.7168C145.958 62.8721 145.958 64.1367 145.63 65.8867H147.339V67.1172H142.431V72.2305H140.9V67.1172H136.073V65.8867H144.085C144.427 64.2051 144.441 62.9473 144.441 61.8398H137.4V60.6094H145.958ZM158.237 59.8574V72.2168H156.774V59.8574H158.237ZM155.694 60.0762V71.6152H154.245V65.7363H153.069C152.926 68.1426 151.893 69.6328 150.362 69.6191C148.749 69.6328 147.696 67.9238 147.696 65.2031C147.696 62.4824 148.749 60.8008 150.362 60.8008C151.859 60.8008 152.878 62.1953 153.055 64.5059H154.245V60.0762H155.694ZM150.362 62.2363C149.583 62.2227 149.091 63.2754 149.104 65.2031C149.091 67.1309 149.583 68.1836 150.362 68.1699C151.182 68.1836 151.675 67.1309 151.675 65.2031C151.675 63.2754 151.182 62.2227 150.362 62.2363ZM169.737 59.8574V72.2168H168.288V59.8574H169.737ZM167.112 60.1582V71.6289H165.676V65.9414H163.475C162.75 67.3633 161.588 68.5938 159.838 69.6055L158.977 68.5254C161.54 67.0146 162.709 65.0801 162.942 62.5918H159.606V61.3613H164.446C164.446 62.5576 164.302 63.6787 163.967 64.7246H165.676V60.1582H167.112ZM178.859 67.582C181.539 67.5957 183.234 68.4434 183.248 69.9062C183.234 71.3418 181.539 72.2031 178.859 72.2031C176.193 72.2031 174.484 71.3418 174.484 69.9062C174.484 68.4434 176.193 67.5957 178.859 67.582ZM178.859 68.7305C177.082 68.7305 176.002 69.1543 176.015 69.9062C176.002 70.6309 177.082 71.0273 178.859 71.0273C180.65 71.0273 181.73 70.6309 181.744 69.9062C181.73 69.1543 180.65 68.7305 178.859 68.7305ZM183.166 60.4453V61.4707C183.166 62.4414 183.166 63.4805 182.824 64.752L181.32 64.6152C181.628 63.4121 181.648 62.5439 181.648 61.6484H174.607V60.4453H183.166ZM184.533 65.4629V66.6934H173.322V65.4629H177.67V63.2207H179.173V65.4629H184.533ZM196.073 66.7891V68.0195H193.325V72.2168H191.78V68.0195H189.046V72.2168H187.488V68.0195H184.78V66.7891H196.073ZM190.4 60.2949C193.025 60.3086 194.857 61.375 194.857 63.0566C194.857 64.7109 193.025 65.7637 190.4 65.7637C187.761 65.7637 185.956 64.7109 185.97 63.0566C185.956 61.375 187.761 60.3086 190.4 60.2949ZM190.4 61.5254C188.65 61.5254 187.515 62.0859 187.529 63.0566C187.515 64 188.65 64.5605 190.4 64.5605C192.15 64.5605 193.284 64 193.284 63.0566C193.284 62.0859 192.15 61.5254 190.4 61.5254ZM205.973 59.8574V64.7793H207.874V66.0371H205.973V72.2168H204.47V59.8574H205.973ZM203.512 61.7578V62.9746H196.225V61.7578H199.151V60.0352H200.669V61.7578H203.512ZM199.917 63.7812C201.694 63.7812 203.02 64.9844 203.02 66.6934C203.02 68.4023 201.694 69.5918 199.917 69.5918C198.112 69.5918 196.786 68.4023 196.8 66.6934C196.786 64.9844 198.112 63.7812 199.917 63.7812ZM199.917 65.0254C198.946 65.0254 198.249 65.6816 198.249 66.6934C198.249 67.7051 198.946 68.3477 199.917 68.334C200.86 68.3477 201.557 67.7051 201.571 66.6934C201.557 65.6816 200.86 65.0254 199.917 65.0254ZM212.223 63.3711C212.223 65.2852 213.358 67.459 215.313 68.3613L214.465 69.5645C213.071 68.9082 212.038 67.582 211.485 66.0371C210.924 67.7324 209.844 69.1816 208.422 69.8652L207.534 68.6758C209.502 67.7461 210.692 65.4219 210.705 63.3711V62.332H208.012V61.0742H214.807V62.332H212.223V63.3711ZM217.473 59.8574V64.6699H219.373V65.9414H217.473V72.2168H215.955V59.8574H217.473Z" fill="#E4E6EB"/>
</g>
<defs>
<filter id="filter0_d_1325_7277" x="72.9637" y="-4.89443" width="359.566" height="359.566" filterUnits="userSpaceOnUse" color-interpolation-filters="sRGB">
<feFlood flood-opacity="0" result="BackgroundImageFix"/>
<feColorMatrix in="SourceAlpha" type="matrix" values="0 0 0 0 0 0 0 0 0 0 0 0 0 0 0 0 0 0 127 0" result="hardAlpha"/>
<feOffset/>
<feGaussianBlur stdDeviation="51.7681"/>
<feComposite in2="hardAlpha" operator="out"/>
<feColorMatrix type="matrix" values="0 0 0 0 0.886275 0 0 0 0 0.117647 0 0 0 0 0.258824 0 0 0 1 0"/>
<feBlend mode="normal" in2="BackgroundImageFix" result="effect1_dropShadow_1325_7277"/>
<feBlend mode="normal" in="SourceGraphic" in2="effect1_dropShadow_1325_7277" result="shape"/>
</filter>
<linearGradient id="paint0_linear_1325_7277" x1="286.911" y1="183.687" x2="19.7335" y2="94.0056" gradientUnits="userSpaceOnUse">
<stop stop-color="#93A4F2"/>
<stop offset="0.275553" stop-color="#FF6B69"/>
<stop offset="0.706731" stop-color="#FFA3FE"/>
<stop offset="1" stop-color="#FEFDC6"/>
</linearGradient>
<linearGradient id="paint1_linear_1325_7277" x1="196.404" y1="203.542" x2="-9.35827" y2="363.867" gradientUnits="userSpaceOnUse">
<stop stop-color="#93A4F2"/>
<stop offset="0.416003" stop-color="#FF7CFE"/>
<stop offset="0.729622" stop-color="#FF6462"/>
<stop offset="1" stop-color="#FDAD7C"/>
</linearGradient>
<linearGradient id="paint2_linear_1325_7277" x1="252.641" y1="182.009" x2="-3.5" y2="182.009" gradientUnits="userSpaceOnUse">
<stop stop-color="#99A2FF"/>
<stop offset="0.4375" stop-color="#FFFFC1"/>
<stop offset="0.754808" stop-color="#FEB082"/>
<stop offset="1" stop-color="#FE6651"/>
</linearGradient>
<clipPath id="clip0_1325_7277">
<rect width="327" height="218" rx="10" fill="white"/>
</clipPath>
</defs>
</svg>
