<svg xmlns="http://www.w3.org/2000/svg" width="1200" height="630" viewBox="0 0 1200 630" preserveAspectRatio="none" fill="none">
<rect width="1200" height="630" fill="#1F2021"/>
<g>
<path d="M0 0 L1200 0 L1200 630 L0 630 L0 0" fill="#1F2021"/>
<path d="M0 283.027L940.344 491.459V531.527L0 440.279V283.027Z" fill="url(#paint0_linear_1325_7277)" stroke="white" stroke-width="2.3"/>
<path d="M940.344 593.333V531.596L1.2422 441.926L0 618.503V797.027L940.344 593.333Z" fill="url(#paint1_linear_1325_7277)" stroke="white" stroke-width="2.3"/>
<path d="M940.344 539.889V530.402L0 439.027V612.527L940.344 539.889Z" fill="url(#paint2_linear_1325_7277)" stroke="white" stroke-width="2.3"/>
<g filter="url(#filter0_d_1325_7277)">
<path d="M1207.97 697.727C1207.97 713.139 1191.65 725.5 1172.17 725.5H1124.96C1113.72 725.5 1103.15 721.244 1096.58 713.934L1066.02 680.717C1052.4 661.889 1023.21 661.889 1009.59 680.717L979.027 713.934C972.461 721.244 961.891 725.5 950.645 725.5H908.688C897.441 725.5 886.871 721.244 880.305 713.934L849.742 680.717C836.117 661.889 806.934 661.889 793.309 680.717L762.746 713.934C756.18 721.244 745.609 725.5 734.363 725.5H682.807C663.324 725.5 647.5 713.139 647.5 697.727V312.52C647.5 297.108 663.324 284.747 682.807 284.747H842.008C853.254 284.747 863.824 289.003 870.391 296.313L900.953 329.53C914.578 348.358 943.762 348.358 957.387 329.53L987.949 296.313C994.516 289.003 1005.09 284.747 1016.33 284.747H1172.17C1191.65 284.747 1207.97 297.108 1207.97 312.52V697.727Z" fill="white"/>
</g>
<path d="M795.273 440.607C799.324 433.159 811.328 433.159 815.379 440.607L833.211 474.836C834.348 477.115 836.211 478.978 838.49 480.115L872.719 497.947C880.168 501.998 880.168 514.002 872.719 518.053L838.49 535.885C836.211 537.022 834.348 538.885 833.211 541.164L815.379 575.393C811.328 582.841 799.324 582.841 795.273 575.393L777.441 541.164C776.304 538.885 774.441 537.022 772.162 535.885L737.934 518.053C730.485 514.002 730.485 501.998 737.934 497.947L772.162 480.115C774.441 478.978 776.304 477.115 777.441 474.836L795.273 440.607Z" fill="black"/>
<path d="M1041.33 440.607C1045.38 433.159 1057.39 433.159 1061.44 440.607L1079.27 474.836C1080.41 477.115 1082.27 478.978 1084.55 480.115L1118.78 497.947C1126.23 501.998 1126.23 514.002 1118.78 518.053L1084.55 535.885C1082.27 537.022 1080.41 538.885 1079.27 541.164L1061.44 575.393C1057.39 582.841 1045.38 582.841 1041.33 575.393L1023.5 541.164C1022.36 538.885 1020.5 537.022 1018.22 535.885L983.992 518.053C976.543 514.002 976.543 501.998 983.992 497.947L1018.22 480.115C1020.5 478.978 1022.36 477.115 1023.5 474.836L1041.33 440.607Z" fill="black"/>
<text x="126" y="80" font-family="Arial" font-size="48" fill="white">오늘의 도파민은?</text>
<text x="126" y="140" font-family="Arial" font-size="32" fill="#E4E6EB">오늘의 도파민 찾고 친구에게 공유하자</text>
</g>
<defs>
<filter id="filter0_d_1325_7277" x="267.964" y="-14.2472" width="1319.57" height="1039.57" filterUnits="userSpaceOnUse" color-interpolation-filters="sRGB">
<feFlood flood-opacity="0" result="BackgroundImageFix"/>
<feColorMatrix in="SourceAlpha" type="matrix" values="0 0 0 0 0 0 0 0 0 0 0 0 0 0 0 0 0 0 127 0" result="hardAlpha"/>
<feOffset/>
<feGaussianBlur stdDeviation="149.768"/>
<feComposite in2="hardAlpha" operator="out"/>
<feColorMatrix type="matrix" values="0 0 0 0 0.886275 0 0 0 0 0.117647 0 0 0 0 0.258824 0 0 0 1 0"/>
<feBlend mode="normal" in2="BackgroundImageFix" result="effect1_dropShadow_1325_7277"/>
<feBlend mode="normal" in="SourceGraphic" in2="effect1_dropShadow_1325_7277" result="shape"/>
</filter>
<linearGradient id="paint0_linear_1325_7277" x1="1053.34" y1="530.598" x2="72.3896" y2="271.516" gradientUnits="userSpaceOnUse">
<stop stop-color="#93A4F2"/>
<stop offset="0.275553" stop-color="#FF6B69"/>
<stop offset="0.706731" stop-color="#FFA3FE"/>
<stop offset="1" stop-color="#FEFDC6"/>
</linearGradient>
<linearGradient id="paint1_linear_1325_7277" x1="720.815" y1="587.867" x2="-34.3473" y2="1051.21" gradientUnits="userSpaceOnUse">
<stop stop-color="#93A4F2"/>
<stop offset="0.416003" stop-color="#FF7CFE"/>
<stop offset="0.729622" stop-color="#FF6462"/>
<stop offset="1" stop-color="#FDAD7C"/>
</linearGradient>
<linearGradient id="paint2_linear_1325_7277" x1="940.344" y1="525.777" x2="0" y2="525.777" gradientUnits="userSpaceOnUse">
<stop stop-color="#99A2FF"/>
<stop offset="0.4375" stop-color="#FFFFC1"/>
<stop offset="0.754808" stop-color="#FEB082"/>
<stop offset="1" stop-color="#FE6651"/>
</linearGradient>
</defs>
</svg>